# xmcd
#
# Track frame offsets:
#	150
#	16125
#	27687
#	41890
#	57992
#	73427
#	87790
#	99755
#
# Disc length: 1581
#
# Revision: 1
# Processed by: cddbd v1.5.1PL0 Copyright (c) Steve Scherf et al.
# Submitted via: uFREEDB 1.6.0
# Normalized: r0:DSETVAR2,TDELIM( - )
#
DISCID=68062b08
DTITLE=Various Artist - Promo Vol 18A
DYEAR=1991
DGENRE=Country
TTITLE0=Doug Stone - A Jukebox With A Country Song
TTITLE1=Vern Gosdin - A Month Of Sundays
TTITLE2=B.B. Watson - Eye For An Eye
TTITLE3=Austin Cunningham - For These Thy Gifts
TTITLE4=Mike Reid - I'll Stop Loving You
TTITLE5=Kenny Rogers - If You Want To Find love
TTITLE6=Dwight Yoakam - It Only Hurts When I Cry
TTITLE7=Diamond Rio - Mama Don't Forget To Pray For Me
EXTD=
EXTT0=
EXTT1=
EXTT2=
EXTT3=
EXTT4=
EXTT5=
EXTT6=
EXTT7=
PLAYORDER=
